HIERARCHY
ROOT Hips
{
 OFFSET 0.000000 0.000000 0.000000
 CHANNELS 6 Xposition Yposition Zposition Yrotation Xrotation Zrotation
 JOINT Chest
 {
  OFFSET 0.000000 9.585900 0.002600
  CHANNELS 3 Yrotation Xrotation Zrotation
  JOINT Chest2
  {
   OFFSET 0.000000 9.601200 -0.005300
   CHANNELS 3 Yrotation Xrotation Zrotation
   JOINT Chest3
   {
    OFFSET 0.000000 9.561800 0.000000
    CHANNELS 3 Yrotation Xrotation Zrotation
    JOINT Chest4
    {
     OFFSET 0.000000 9.552100 0.000000
     CHANNELS 3 Yrotation Xrotation Zrotation
     JOINT Neck
     {
      OFFSET 0.000000 14.453000 0.000000
      CHANNELS 3 Yrotation Xrotation Zrotation
      JOINT Head
      {
       OFFSET 0.000000 8.936500 -0.011300
       CHANNELS 3 Yrotation Xrotation Zrotation
       End Site
       {
        OFFSET 0.000000 17.073600 -0.006000
       }
      }
     }
     JOINT RightCollar
     {
      OFFSET -2.921100 9.558500 0.000000
      CHANNELS 3 Yrotation Xrotation Zrotation
      JOINT RightShoulder
      {
       OFFSET -13.519700 0.000000 0.000000
       CHANNELS 3 Yrotation Xrotation Zrotation
       JOINT RightElbow
       {
        OFFSET 0.000000 -29.696600 0.000000
        CHANNELS 3 Yrotation Xrotation Zrotation
        JOINT RightWrist
        {
         OFFSET 0.000000 -24.004700 0.000000
         CHANNELS 3 Yrotation Xrotation Zrotation
         End Site
         {
          OFFSET 0.000000 -17.728500 0.000000
         }
        }
       }
      }
     }
     JOINT LeftCollar
     {
      OFFSET 2.921100 9.558500 0.000000
      CHANNELS 3 Yrotation Xrotation Zrotation
      JOINT LeftShoulder
      {
       OFFSET 13.519700 0.000000 0.000000
       CHANNELS 3 Yrotation Xrotation Zrotation
       JOINT LeftElbow
       {
        OFFSET 0.000000 -29.696600 0.000000
        CHANNELS 3 Yrotation Xrotation Zrotation
        JOINT LeftWrist
        {
         OFFSET 0.000000 -24.004700 0.000000
         CHANNELS 3 Yrotation Xrotation Zrotation
         End Site
         {
          OFFSET 0.000000 -17.728500 0.000000
         }
        }
       }
      }
     }
    }
   }
  }
 }
 JOINT RightHip
 {
  OFFSET -7.771700 -0.012900 -0.001300
  CHANNELS 3 Yrotation Xrotation Zrotation
  JOINT RightKnee
  {
   OFFSET 0.000000 -40.869800 0.001200
   CHANNELS 3 Yrotation Xrotation Zrotation
   JOINT RightAnkle
   {
    OFFSET 0.000000 -39.717900 0.002100
    CHANNELS 3 Yrotation Xrotation Zrotation
    JOINT RightToe
    {
     OFFSET 0.000000 -4.965400 11.033500
     CHANNELS 3 Yrotation Xrotation Zrotation
     End Site
     {
      OFFSET 0.000000 -1.423100 5.872300
     }
    }
   }
  }
 }
 JOINT LeftHip
 {
  OFFSET 7.771700 -0.012900 -0.001300
  CHANNELS 3 Yrotation Xrotation Zrotation
  JOINT LeftKnee
  {
   OFFSET 0.000000 -40.869800 0.001200
   CHANNELS 3 Yrotation Xrotation Zrotation
   JOINT LeftAnkle
   {
    OFFSET 0.000000 -39.717900 0.002100
    CHANNELS 3 Yrotation Xrotation Zrotation
    JOINT LeftToe
    {
     OFFSET 0.000000 -4.965400 11.033500
     CHANNELS 3 Yrotation Xrotation Zrotation
     End Site
     {
      OFFSET 0.000000 -1.423100 5.872300
     }
    }
   }
  }
 }
}
MOTION
Frames: 15
Frame Time: 0.008333
-18.227751 50.957700 38.416400 -178.059436 -35.298783 -9.424428 -0.539208 13.693255 2.897387 -0.325926 7.773710 1.781802 -0.352177 9.698650 2.203824 -0.324355 7.783635 1.794344 6.136888 21.813040 0.229506 6.612220 -2.220682 -1.160432 -0.828756 1.352493 -1.904351 -11.753390 -7.321102 4.720876 40.440461 -67.538423 -22.811189 11.508198 -11.234017 -17.439090 -8.758704 4.242851 -3.461603 7.581416 -0.225811 -0.259760 -71.306637 -69.913661 75.323864 10.076878 -17.538226 -3.257291 -10.564767 -31.190425 1.184665 20.034071 79.972960 14.152685 -3.745997 -9.479762 8.196995 -0.147193 0.106001 -2.372228 -11.979011 -45.057396 10.998596 177.133031 78.361319 172.516031 -2.740250 -17.727583 2.408604 -0.017813 0.037043 -0.024301
-18.206382 50.975675 38.441997 -177.953005 -35.392127 -9.484282 -0.619924 13.804461 2.896397 -0.343822 7.793305 1.800269 -0.338239 9.689533 2.192097 -0.322353 7.804130 1.817519 6.130676 21.847959 0.218834 6.609378 -2.227745 -1.186603 -0.852933 1.322803 -1.914307 -11.751253 -7.327742 4.722090 40.452573 -67.473729 -22.821714 11.470595 -11.223549 -17.423871 -8.763880 4.224255 -3.460277 7.606572 -0.173135 -0.292512 -71.159060 -70.139109 75.155597 10.099550 -17.440751 -3.283324 -10.947060 -30.886161 1.007350 23.210312 79.801295 17.441742 -4.012446 -10.212782 7.858670 -0.073943 0.514849 -1.930418 -12.041650 -44.941743 11.045073 177.115882 78.416817 172.463846 -2.811339 -17.677263 2.440017 -0.013952 0.034567 -0.018462
-18.151677 50.993294 38.483843 -177.974570 -35.412361 -9.619277 -0.596910 13.841788 3.059102 -0.337517 7.802737 1.803445 -0.340904 9.716290 2.223922 -0.307823 7.786519 1.795487 6.123015 21.877155 0.208202 6.604007 -2.231480 -1.211019 -0.873693 1.297304 -1.925106 -11.787002 -7.299267 4.747799 40.646872 -67.421220 -22.988700 11.493813 -11.160203 -17.410862 -8.761722 4.205896 -3.458965 7.610558 -0.163058 -0.329341 -70.898441 -70.363207 74.877478 10.134695 -17.346331 -3.313886 -11.333964 -30.692233 1.218787 25.799907 79.553294 20.024443 -4.333501 -10.652203 7.406031 0.031793 0.741971 -1.418033 -12.217126 -44.886958 11.370229 177.172716 78.450785 172.491888 -2.873951 -17.641135 2.438862 -0.007348 0.030569 -0.013261
-18.076334 51.003434 38.547779 -178.165834 -35.314152 -9.727407 -0.441097 13.746244 3.294348 -0.325309 7.806733 1.807530 -0.336753 9.727754 2.239656 -0.299580 7.781232 1.792660 6.114899 21.900636 0.197203 6.597736 -2.189688 -1.218108 -0.887874 1.272702 -1.943743 -11.802262 -7.265310 4.755117 40.796005 -67.414414 -23.124345 11.539471 -11.094903 -17.388985 -8.771627 4.217067 -3.417646 7.622701 -0.177193 -0.410583 -70.641504 -70.595992 74.603096 10.191316 -17.268004 -3.356474 -11.642445 -30.707329 1.690679 26.117236 79.373160 20.271990 -4.341862 -10.712948 6.997807 0.080062 0.759216 -0.981788 -12.404400 -44.958149 11.869580 177.269481 78.478934 172.558984 -2.934897 -17.604567 2.420164 -0.020085 0.034604 -0.013018
-17.994482 51.011973 38.620382 -178.407768 -35.168649 -9.804614 -0.247262 13.598138 3.526591 -0.312812 7.807927 1.813609 -0.328987 9.716101 2.232327 -0.298573 7.800075 1.814934 6.107472 21.919164 0.185614 6.592065 -2.159924 -1.226464 -0.890940 1.241661 -1.975932 -11.839276 -7.200876 4.779501 41.000259 -67.423713 -23.305455 11.567617 -11.032860 -17.362892 -8.785345 4.204488 -3.413352 7.648370 -0.098297 -0.450049 -70.603022 -70.866757 74.553230 10.270068 -17.206397 -3.422523 -11.901707 -30.880608 2.247902 24.227314 79.383006 18.308836 -4.013537 -10.563542 6.701421 0.084542 0.666689 -0.675217 -12.537366 -45.089800 12.349149 177.253212 78.507968 172.557761 -2.983901 -17.563090 2.377677 -0.022759 0.033332 -0.014045
-17.929341 51.021308 38.689616 -178.624253 -35.031291 -9.772642 -0.093768 13.458718 3.632090 -0.299868 7.796687 1.809522 -0.328307 9.718298 2.236916 -0.297819 7.802454 1.817320 6.105595 21.939193 0.188028 6.588791 -2.084686 -1.208064 -0.901452 1.236125 -1.970066 -11.844395 -7.188552 4.768949 41.043745 -67.380643 -23.379829 11.574082 -11.005891 -17.306073 -8.797704 4.204857 -3.402710 7.666516 -0.069629 -0.481939 -70.419864 -71.135754 74.358151 10.363468 -17.154718 -3.522601 -12.073184 -31.151124 2.687651 21.540912 79.552586 15.570088 -3.572894 -10.310236 6.528334 0.051511 0.468241 -0.504993 -12.569592 -45.223807 12.644092 177.158757 78.563920 172.460787 -3.036973 -17.503988 2.343024 -0.043813 0.036492 -0.014046
-17.898902 51.041965 38.732532 -178.649389 -35.024231 -9.640334 -0.105120 13.492660 3.538556 -0.303267 7.765038 1.791684 -0.332275 9.737466 2.255107 -0.296242 7.789147 1.804933 6.101776 21.934689 0.174363 6.589188 -2.024544 -1.182290 -0.904977 1.232893 -1.957737 -11.858015 -7.179446 4.753339 41.041017 -67.368141 -23.390189 11.594901 -11.001302 -17.274092 -8.816408 4.208974 -3.393910 7.691225 -0.047625 -0.516346 -70.249999 -71.421613 74.172709 10.467635 -17.104722 -3.655688 -12.199157 -31.349500 2.836864 19.459052 79.769429 13.464374 -3.376474 -10.009252 6.426048 0.090148 0.210015 -0.405000 -12.658935 -45.191673 12.733971 177.378300 78.669229 172.486276 -3.106026 -17.426509 2.371334 -0.043685 0.038286 -0.005262
-17.894280 51.070253 38.754035 -178.514229 -35.107055 -9.462783 -0.246112 13.617402 3.288758 -0.317451 7.765910 1.802238 -0.335418 9.743057 2.261128 -0.294474 7.827274 1.833792 6.081696 21.915020 0.140089 6.587260 -2.013387 -1.187069 -0.908526 1.186373 -1.979155 -11.954793 -7.100490 4.742932 41.264844 -67.432985 -23.534147 11.576004 -10.899624 -17.230697 -8.849820 4.161346 -3.414537 7.722633 -0.034893 -0.553069 -70.101892 -71.713992 74.005058 10.579882 -17.049566 -3.814027 -12.336064 -31.469233 2.727959 18.590526 80.008843 12.566090 -3.245834 -9.824650 6.428685 0.049619 0.006949 -0.417572 -12.632777 -45.078907 12.509452 177.284375 78.791513 172.248826 -3.184736 -17.333694 2.395696 -0.035011 0.030000 0.000199
-17.858357 51.091357 38.787390 -178.435069 -35.080313 -9.472709 -0.306429 13.621089 3.260817 -0.320236 7.778240 1.814242 -0.329733 9.788195 2.296160 -0.312909 7.781581 1.811123 6.079443 21.932006 0.143719 6.579700 -2.031849 -1.205529 -0.905117 1.191726 -1.969743 -12.037074 -7.067387 4.718255 41.251825 -67.472714 -23.486344 11.574546 -10.835364 -17.186527 -8.879753 4.151493 -3.420562 7.750072 -0.032132 -0.577237 -69.936211 -71.997098 73.819104 10.691355 -16.986614 -3.980857 -12.609356 -31.622279 2.872235 17.938857 80.153594 11.920287 -3.135562 -9.624414 6.412257 0.043318 -0.135366 -0.456850 -12.761206 -45.077982 12.592347 177.154800 78.857221 172.073323 -3.246151 -17.268649 2.377607 -0.022437 0.027303 -0.004124
-17.831079 51.113705 38.807543 -178.380691 -35.094996 -9.458852 -0.352879 13.649032 3.216952 -0.295279 7.825937 1.841199 -0.350093 9.770595 2.296201 -0.316253 7.798136 1.827851 6.066463 21.929491 0.131571 6.571465 -2.050655 -1.224705 -0.904685 1.230115 -1.941622 -12.097168 -7.112232 4.667185 41.161622 -67.502481 -23.387197 11.578963 -10.802254 -17.164985 -8.914045 4.120150 -3.440446 7.773260 -0.051690 -0.593614 -69.721289 -72.251624 73.584553 10.786823 -16.917582 -4.132380 -12.858135 -31.714210 2.939576 17.499626 80.300009 11.506182 -2.998694 -9.501234 6.408007 0.018382 -0.221830 -0.518595 -12.777032 -45.038947 12.561986 176.976323 78.913199 171.882019 -3.138191 -17.234098 2.322206 -0.025223 0.021946 -0.005784
-17.806178 51.132690 38.820850 -178.337573 -35.100784 -9.467404 -0.365673 13.683158 3.215405 -0.303429 7.833006 1.846613 -0.353203 9.776289 2.305241 -0.316680 7.813487 1.843441 6.067471 21.972322 0.161689 6.549813 -2.086805 -1.259694 -0.907527 1.253363 -1.931414 -12.142943 -7.136632 4.632819 41.113231 -67.526627 -23.337088 11.566645 -10.769803 -17.165788 -8.947109 4.092033 -3.458307 7.795246 -0.052038 -0.610372 -69.596754 -72.466069 73.439428 10.857482 -16.845862 -4.252639 -13.098736 -31.775453 2.983009 17.522276 80.427580 11.579748 -2.896363 -9.448831 6.393813 -0.003756 -0.263787 -0.570408 -12.888631 -44.997230 12.622601 176.898071 78.952000 171.697599 -2.836448 -17.225288 2.242330 -0.017457 0.018735 -0.002962
-17.787987 51.144998 38.829876 -178.278849 -35.073166 -9.481757 -0.389172 13.718744 3.220434 -0.316233 7.817368 1.848806 -0.356328 9.773079 2.309589 -0.316276 7.817382 1.848777 6.049253 21.954306 0.151978 6.552672 -2.007351 -1.188465 -0.907829 1.270411 -1.925063 -12.177759 -7.140006 4.609402 41.109925 -67.552752 -23.339988 11.548613 -10.729816 -17.189286 -8.974507 4.075598 -3.465361 7.802384 -0.070088 -0.620611 -69.430557 -72.625990 73.255948 10.897238 -16.774276 -4.327267 -13.310726 -31.831865 2.965279 18.158389 80.530006 12.280915 -2.809619 -9.487495 6.369905 -0.032566 -0.256950 -0.597729 -13.031370 -44.993139 12.705381 176.880398 78.977363 171.559816 -2.573031 -17.220281 2.188531 -0.007814 0.016993 -0.002268
-17.773831 51.155063 38.828892 -178.264929 -35.068438 -9.474385 -0.397072 13.739769 3.216724 -0.310573 7.829937 1.857031 -0.351693 9.777142 2.314357 -0.312622 7.820718 1.852527 6.046384 21.973022 0.174278 6.537400 -2.010956 -1.181214 -0.911521 1.283626 -1.923199 -12.203640 -7.138805 4.594792 41.175226 -67.595348 -23.408235 11.529243 -10.660016 -17.236397 -8.997471 4.055148 -3.468545 7.799610 -0.099387 -0.626344 -69.242965 -72.732947 73.047914 10.900551 -16.707397 -4.344006 -13.383469 -31.839438 2.920950 18.810660 80.619098 13.026235 -2.780712 -9.594392 6.342206 -0.040348 -0.212836 -0.577793 -13.035458 -44.982183 12.703487 176.800994 78.991263 171.468302 -2.428526 -17.229232 2.151797 -0.009472 0.016354 -0.011079
-17.761764 51.159535 38.823826 -178.273784 -35.047095 -9.456749 -0.392002 13.755659 3.222020 -0.305325 7.820727 1.854656 -0.342165 9.791203 2.321734 -0.312901 7.811002 1.850730 6.055164 22.007887 0.205875 6.522558 -2.011162 -1.170141 -0.909871 1.304638 -1.919888 -12.226736 -7.131828 4.591060 41.116991 -67.549103 -23.399035 11.533403 -10.686718 -17.287923 -9.010157 4.042329 -3.465597 7.753928 -0.165917 -0.622771 -68.918823 -72.786501 72.733184 10.876340 -16.647219 -4.317262 -13.431114 -31.843438 2.876494 19.514222 80.687569 13.828126 -2.815956 -9.747445 6.269503 -0.044801 -0.143382 -0.515433 -13.042145 -44.991301 12.732519 176.915356 78.997279 171.562145 -2.347191 -17.241728 2.146964 -0.010105 0.014081 -0.021950
-17.753115 51.158863 38.815129 -178.289605 -35.010344 -9.418841 -0.392343 13.769817 3.215114 -0.301851 7.777795 1.837231 -0.328947 9.826672 2.335881 -0.322727 7.776310 1.839923 6.061482 22.026201 0.220283 6.518531 -2.003612 -1.159245 -0.905306 1.319936 -1.916769 -12.237175 -7.093128 4.597745 41.164889 -67.548280 -23.472561 11.530279 -10.640198 -17.350926 -9.006599 4.051345 -3.456648 7.713203 -0.218869 -0.632047 -68.690377 -72.791929 72.510011 10.836498 -16.590294 -4.272547 -13.554763 -31.834112 2.817894 20.471209 80.711768 14.834581 -2.840476 -9.967405 6.112559 -0.065113 -0.036598 -0.418988 -13.029097 -45.022822 12.734731 177.036494 78.997519 171.670821 -2.300471 -17.257636 2.152263 -0.010523 0.012945 -0.032307
